# Tiled2Unity generated file. Do not modify by hand.
# Wavefront file for 'Nivel_01_mesh_0007.obj'

# Vertices (Count = 168)
v -800 -32 0
v -832 -32 0
v -832 0 0
v -800 0 0
v -832 -32 0
v -864 -32 0
v -864 0 0
v -832 0 0
v -288 -64 0
v -320 -64 0
v -320 -32 0
v -288 -32 0
v -800 -64 0
v -832 -64 0
v -832 -32 0
v -800 -32 0
v -832 -64 0
v -864 -64 0
v -864 -32 0
v -832 -32 0
v -64 -96 0
v -96 -96 0
v -96 -64 0
v -64 -64 0
v -288 -96 0
v -320 -96 0
v -320 -64 0
v -288 -64 0
v -64 -128 0
v -96 -128 0
v -96 -96 0
v -64 -96 0
v -608 -128 0
v -640 -128 0
v -640 -96 0
v -608 -96 0
v -672 -128 0
v -704 -128 0
v -704 -96 0
v -672 -96 0
v -928 -128 0
v -960 -128 0
v -960 -96 0
v -928 -96 0
v -576 -160 0
v -608 -160 0
v -608 -128 0
v -576 -128 0
v -736 -160 0
v -768 -160 0
v -768 -128 0
v -736 -128 0
v -992 -160 0
v -1024 -160 0
v -1024 -128 0
v -992 -128 0
v -992 -288 0
v -1024 -288 0
v -1024 -256 0
v -992 -256 0
v -128 -320 0
v -160 -320 0
v -160 -288 0
v -128 -288 0
v -992 -320 0
v -1024 -320 0
v -1024 -288 0
v -992 -288 0
v -128 -352 0
v -160 -352 0
v -160 -320 0
v -128 -320 0
v -864 -352 0
v -896 -352 0
v -896 -320 0
v -864 -320 0
v -896 -352 0
v -928 -352 0
v -928 -320 0
v -896 -320 0
v -928 -352 0
v -960 -352 0
v -960 -320 0
v -928 -320 0
v -992 -352 0
v -1024 -352 0
v -1024 -320 0
v -992 -320 0
v -864 -384 0
v -896 -384 0
v -896 -352 0
v -864 -352 0
v -896 -384 0
v -928 -384 0
v -928 -352 0
v -896 -352 0
v -928 -384 0
v -960 -384 0
v -960 -352 0
v -928 -352 0
v -992 -384 0
v -1024 -384 0
v -1024 -352 0
v -992 -352 0
v -864 -416 0
v -896 -416 0
v -896 -384 0
v -864 -384 0
v -896 -416 0
v -928 -416 0
v -928 -384 0
v -896 -384 0
v -928 -416 0
v -960 -416 0
v -960 -384 0
v -928 -384 0
v -992 -416 0
v -1024 -416 0
v -1024 -384 0
v -992 -384 0
v -992 -448 0
v -1024 -448 0
v -1024 -416 0
v -992 -416 0
v -160 -480 0
v -192 -480 0
v -192 -448 0
v -160 -448 0
v -992 -480 0
v -1024 -480 0
v -1024 -448 0
v -992 -448 0
v 0 -512 0
v -32 -512 0
v -32 -480 0
v 0 -480 0
v -96 -640 0
v -128 -640 0
v -128 -608 0
v -96 -608 0
v -928 -640 0
v -960 -640 0
v -960 -608 0
v -928 -608 0
v 0 -672 0
v -32 -672 0
v -32 -640 0
v 0 -640 0
v -192 -672 0
v -224 -672 0
v -224 -640 0
v -192 -640 0
v -288 -672 0
v -320 -672 0
v -320 -640 0
v -288 -640 0
v -480 -672 0
v -512 -672 0
v -512 -640 0
v -480 -640 0
v -640 -672 0
v -672 -672 0
v -672 -640 0
v -640 -640 0
v -768 -672 0
v -800 -672 0
v -800 -640 0
v -768 -640 0

# Texture cooridinates (Count = 53)
vt 0.375 0.1127819
vt 0.5 0.1127819
vt 0.5 0.1203008
vt 0.375 0.1203008
vt 0.625 0.1127819
vt 0.625 0.1203008
vt 0.125 0.9398496
vt 0.25 0.9398496
vt 0.25 0.9473684
vt 0.125 0.9473684
vt 0.375 0.1052632
vt 0.5 0.1052632
vt 0.625 0.1052632
vt 0 0.9473684
vt 0.125 0.9548872
vt 0 0.9548872
vt 0 0.1654136
vt 0.125 0.1654136
vt 0.125 0.1729323
vt 0 0.1729323
vt 0 0.1578947
vt 0.125 0.1578947
vt 0 0.1203008
vt 0.125 0.1203008
vt 0.125 0.1278195
vt 0 0.1278195
vt 0.25 0.1203008
vt 0.25 0.1278195
vt 0.375 0.1278195
vt 0 0.150376
vt 0.125 0.150376
vt 0 0.1127819
vt 0.125 0.1127819
vt 0.25 0.1127819
vt 0.25 0.1578947
vt 0.375 0.1578947
vt 0.375 0.1654136
vt 0.25 0.1654136
vt 0 0.1052632
vt 0.125 0.1052632
vt 0.25 0.1052632
vt 0.25 0.150376
vt 0.375 0.150376
vt 0.5 0.1578947
vt 0.625 0.1578947
vt 0.625 0.1654136
vt 0.5 0.1654136
vt 0.5 0.150376
vt 0.625 0.150376
vt 0.625 0.9548872
vt 0.75 0.9548872
vt 0.75 0.962406
vt 0.625 0.962406

# Normal
vn 0 0 -1

# Mesh description
g Nivel_01_mesh_0007

# Faces
f 1/1/1 2/2/1 3/3/1 4/4/1
f 5/2/1 6/5/1 7/6/1 8/3/1
f 9/7/1 10/8/1 11/9/1 12/10/1
f 13/11/1 14/12/1 15/2/1 16/1/1
f 17/12/1 18/13/1 19/5/1 20/2/1
f 21/7/1 22/8/1 23/9/1 24/10/1
f 25/14/1 26/10/1 27/15/1 28/16/1
f 29/14/1 30/10/1 31/15/1 32/16/1
f 33/7/1 34/8/1 35/9/1 36/10/1
f 37/14/1 38/10/1 39/15/1 40/16/1
f 41/14/1 42/10/1 43/15/1 44/16/1
f 45/14/1 46/10/1 47/15/1 48/16/1
f 49/7/1 50/8/1 51/9/1 52/10/1
f 53/7/1 54/8/1 55/9/1 56/10/1
f 57/17/1 58/18/1 59/19/1 60/20/1
f 61/14/1 62/10/1 63/15/1 64/16/1
f 65/21/1 66/22/1 67/18/1 68/17/1
f 69/7/1 70/8/1 71/9/1 72/10/1
f 73/23/1 74/24/1 75/25/1 76/26/1
f 77/24/1 78/27/1 79/28/1 80/25/1
f 81/27/1 82/4/1 83/29/1 84/28/1
f 85/30/1 86/31/1 87/22/1 88/21/1
f 89/32/1 90/33/1 91/24/1 92/23/1
f 93/33/1 94/34/1 95/27/1 96/24/1
f 97/34/1 98/1/1 99/4/1 100/27/1
f 101/35/1 102/36/1 103/37/1 104/38/1
f 105/39/1 106/40/1 107/33/1 108/32/1
f 109/40/1 110/41/1 111/34/1 112/33/1
f 113/41/1 114/11/1 115/1/1 116/34/1
f 117/42/1 118/43/1 119/36/1 120/35/1
f 121/44/1 122/45/1 123/46/1 124/47/1
f 125/14/1 126/10/1 127/15/1 128/16/1
f 129/48/1 130/49/1 131/45/1 132/44/1
f 133/14/1 134/10/1 135/15/1 136/16/1
f 137/7/1 138/8/1 139/9/1 140/10/1
f 141/7/1 142/8/1 143/9/1 144/10/1
f 145/14/1 146/10/1 147/15/1 148/16/1
f 149/50/1 150/51/1 151/52/1 152/53/1
f 153/7/1 154/8/1 155/9/1 156/10/1
f 157/7/1 158/8/1 159/9/1 160/10/1
f 161/7/1 162/8/1 163/9/1 164/10/1
f 165/7/1 166/8/1 167/9/1 168/10/1

